<svg width="27" height="26" viewBox="0 0 27 26" fill="none" xmlns="http://www.w3.org/2000/svg">
<path d="M26.1331 13.2954C26.1331 12.3736 26.0503 11.4872 25.8964 10.6362H13.637V15.6649H20.6423C20.3406 17.2899 19.4236 18.6667 18.045 19.5885V22.8504H22.2517C24.7131 20.5872 26.1331 17.2544 26.1331 13.2954Z" fill="#4285F4"/>
<path d="M13.6369 26C17.1515 26 20.0979 24.8358 22.2516 22.8505L18.0448 19.5886C16.8793 20.3686 15.3882 20.8295 13.6369 20.8295C10.2466 20.8295 7.37705 18.5427 6.35341 15.47H2.00464V18.8381C4.14655 23.0868 8.54855 26 13.6369 26Z" fill="#34A853"/>
<path d="M6.35335 15.47C6.09301 14.69 5.94514 13.8569 5.94514 13C5.94514 12.1432 6.09301 11.31 6.35335 10.53V7.16187H2.00458C1.12308 8.91687 0.620117 10.9024 0.620117 13C0.620117 15.0977 1.12308 17.0832 2.00458 18.8382L6.35335 15.47Z" fill="#FBBC04"/>
<path d="M13.6369 5.17049C15.5479 5.17049 17.2638 5.82634 18.6129 7.11451L22.3463 3.38585C20.0921 1.28817 17.1455 0 13.6369 0C8.54855 0 4.14655 2.91317 2.00464 7.16183L6.35341 10.53C7.37705 7.45732 10.2466 5.17049 13.6369 5.17049Z" fill="#E94235"/>
</svg>
